<svg width="156" height="55" viewBox="0 0 156 55" fill="none" xmlns="http://www.w3.org/2000/svg">
<g clip-path="url(#clip0_102_3047)">
<path fill-rule="evenodd" clip-rule="evenodd" d="M8.4 29.4C8.2 32.1 8.1 44.2 4.5 44.1C0.500003 44.1 -0.0999967 28.3 3.28943e-06 25.9C0.100003 21.1 0.300004 2.50001 6 0.600014C11.3 -1.19999 13.1 8.00001 14.2 11C14.7 12.4 15.8 15.3 17.2 16.3C20.5 14.8 27.9 -4.29999 32.4 1.00001C34.3 3.30001 33.6 12.5 33.4 15.7C33.1 13.8 31.9 6.00001 30.6 3.60001C30.5 3.80001 30.4 3.90001 30.2 4.20001C27.5 9.40001 25.4 20.3 18.5 22C11.9 23.6 9.3 15 7.5 9.50001C6.4 14.8 6.1 22.5 6 26C5.9 29.8 5.2 34.9 5.3 39C6.6 36 8 31 8.4 29.4ZM30.4 3.10001C30.3 3.00001 30.3 3.00001 30.2 2.90001C30.2 3.00001 30.3 3.00001 30.4 3.10001ZM4 41.4C4 41.4 4 41.5 4 41.4C4 41.5 4 41.4 4 41.4Z" fill="#FF8000"/>
</g>
<path d="M42.028 41.3C41.14 42.332 40.084 43.124 38.86 43.676C37.636 44.228 36.316 44.504 34.9 44.504C33.244 44.504 31.792 44.12 30.544 43.352C29.296 42.584 28.324 41.504 27.628 40.112C26.956 38.72 26.62 37.112 26.62 35.288C26.62 33.368 27.004 31.688 27.772 30.248C28.54 28.784 29.62 27.656 31.012 26.864C32.428 26.048 34.072 25.64 35.944 25.64C37.264 25.64 38.38 25.892 39.292 26.396C40.228 26.876 40.924 27.524 41.38 28.34C41.836 29.132 42.064 29.996 42.064 30.932C42.064 31.94 41.788 32.912 41.236 33.848C40.708 34.784 39.928 35.552 38.896 36.152C37.864 36.728 36.628 37.016 35.188 37.016C34.42 37.016 33.568 36.872 32.632 36.584C31.696 36.296 31.228 35.876 31.228 35.324C31.228 35.132 31.276 34.952 31.372 34.784C31.492 34.616 31.624 34.532 31.768 34.532C31.84 34.532 32.08 34.616 32.488 34.784C32.896 34.928 33.424 35 34.072 35C35.512 35 36.628 34.592 37.42 33.776C38.236 32.96 38.644 32 38.644 30.896C38.644 29.96 38.344 29.156 37.744 28.484C37.144 27.788 36.304 27.44 35.224 27.44C33.688 27.44 32.488 28.124 31.624 29.492C30.76 30.836 30.328 32.768 30.328 35.288C30.328 37.424 30.784 39.104 31.696 40.328C32.608 41.528 33.928 42.128 35.656 42.128C37.768 42.128 39.52 41.444 40.912 40.076C41.008 39.98 41.116 39.932 41.236 39.932C41.428 39.932 41.632 40.052 41.848 40.292C42.064 40.508 42.172 40.736 42.172 40.976C42.172 41.096 42.124 41.204 42.028 41.3ZM61.6947 40.832C61.6947 41.576 62.0547 41.948 62.7747 41.948C63.3747 41.948 63.9747 41.732 64.5747 41.3L65.2587 42.236C64.6347 42.932 63.9627 43.484 63.2427 43.892C62.5227 44.3 61.8627 44.504 61.2627 44.504C60.2787 44.504 59.5707 44.204 59.1387 43.604C58.7067 43.004 58.4907 42.032 58.4907 40.688C57.5067 42.08 56.4987 43.064 55.4667 43.64C54.4347 44.216 53.3187 44.504 52.1187 44.504C50.9667 44.504 49.8987 44.18 48.9147 43.532C47.9307 42.86 47.1387 41.864 46.5387 40.544C45.9627 39.224 45.6747 37.628 45.6747 35.756C45.6747 33.692 46.0467 31.904 46.7907 30.392C47.5587 28.856 48.6387 27.68 50.0307 26.864C51.4467 26.048 53.1027 25.64 54.9987 25.64C56.2467 25.64 57.3867 25.796 58.4187 26.108V19.736C58.4187 19.448 58.3587 19.244 58.2387 19.124C58.1427 19.004 57.9627 18.944 57.6987 18.944H56.1147L55.7907 18.008C56.4867 17.384 57.2787 16.868 58.1667 16.46C59.0787 16.052 59.8707 15.848 60.5427 15.848C60.8787 15.848 61.1547 15.956 61.3707 16.172C61.5867 16.388 61.6947 16.664 61.6947 17V40.832ZM49.4547 35.072C49.4547 37.352 49.8387 39.032 50.6067 40.112C51.3987 41.192 52.3827 41.732 53.5587 41.732C54.5187 41.732 55.4187 41.468 56.2587 40.94C57.0987 40.388 57.8427 39.56 58.4907 38.456V28.736C57.3867 27.992 56.2107 27.62 54.9627 27.62C53.2107 27.62 51.8547 28.28 50.8947 29.6C49.9347 30.896 49.4547 32.72 49.4547 35.072ZM69.0933 20.312C69.0933 19.856 69.3453 19.352 69.8493 18.8C70.3773 18.224 70.8573 17.936 71.2893 17.936C71.7453 17.936 72.2373 18.212 72.7653 18.764C73.2933 19.316 73.5573 19.832 73.5573 20.312C73.5573 20.768 73.2933 21.272 72.7653 21.824C72.2373 22.376 71.7453 22.652 71.2893 22.652C70.8813 22.652 70.4133 22.376 69.8853 21.824C69.3573 21.272 69.0933 20.768 69.0933 20.312ZM72.9093 40.832C72.9093 41.648 73.2693 42.056 73.9893 42.056C74.5893 42.056 75.1893 41.804 75.7893 41.3L76.4733 42.236C75.8493 42.932 75.1773 43.484 74.4573 43.892C73.7373 44.3 73.0653 44.504 72.4413 44.504C71.4573 44.504 70.7493 44.204 70.3173 43.604C69.8853 43.004 69.6693 42.032 69.6693 40.688V29.528C69.6693 29.24 69.6093 29.036 69.4893 28.916C69.3933 28.796 69.2133 28.736 68.9493 28.736H67.3653L67.0413 27.8C67.7373 27.176 68.5293 26.66 69.4173 26.252C70.3053 25.844 71.0973 25.64 71.7933 25.64C72.1293 25.64 72.4053 25.748 72.6213 25.964C72.8373 26.18 72.9453 26.456 72.9453 26.792L72.9093 40.832ZM89.8841 17.648C91.4441 17.648 92.8361 17.876 94.0601 18.332C95.3081 18.764 96.2681 19.388 96.9401 20.204C97.6361 20.996 97.9841 21.908 97.9841 22.94C97.9841 24.164 97.6121 25.172 96.8681 25.964C96.1481 26.756 95.2361 27.152 94.1321 27.152C93.6281 27.152 93.3761 27.008 93.3761 26.72C93.3761 26.648 93.4721 26.444 93.6641 26.108C93.8801 25.772 94.0601 25.4 94.2041 24.992C94.3721 24.56 94.4561 24.044 94.4561 23.444C94.4561 22.316 94.0361 21.404 93.1961 20.708C92.3561 20.012 91.2521 19.664 89.8841 19.664C88.1081 19.664 86.6561 20.216 85.5281 21.32C84.4001 22.424 83.5841 23.84 83.0801 25.568C82.5761 27.296 82.3241 29.144 82.3241 31.112C82.3241 33.128 82.6361 34.964 83.2601 36.62C83.9081 38.276 84.8201 39.596 85.9961 40.58C87.1721 41.54 88.5401 42.02 90.1001 42.02C91.6361 42.02 92.9681 41.744 94.0961 41.192C95.2241 40.616 96.1481 39.812 96.8681 38.78C96.9401 38.684 97.0241 38.636 97.1201 38.636C97.3361 38.636 97.5761 38.756 97.8401 38.996C98.1281 39.212 98.2721 39.428 98.2721 39.644C98.2721 39.716 98.2361 39.812 98.1641 39.932C96.1001 42.98 93.3041 44.504 89.7761 44.504C87.2801 44.504 85.1681 43.916 83.4401 42.74C81.7121 41.564 80.4161 39.968 79.5521 37.952C78.6881 35.912 78.2561 33.632 78.2561 31.112C78.2561 28.568 78.6881 26.288 79.5521 24.272C80.4161 22.232 81.7121 20.624 83.4401 19.448C85.1921 18.248 87.3401 17.648 89.8841 17.648ZM113.651 40.688C112.667 42.08 111.659 43.064 110.627 43.64C109.595 44.216 108.479 44.504 107.279 44.504C106.127 44.504 105.059 44.18 104.075 43.532C103.091 42.86 102.299 41.864 101.699 40.544C101.123 39.224 100.835 37.628 100.835 35.756C100.835 33.692 101.207 31.904 101.951 30.392C102.719 28.856 103.799 27.68 105.191 26.864C106.607 26.048 108.263 25.64 110.159 25.64C111.095 25.64 112.415 25.796 114.119 26.108C115.559 26.348 116.639 26.492 117.359 26.54L117.755 27.008L117.323 27.656C117.155 27.896 117.035 28.124 116.963 28.34C116.891 28.532 116.855 28.772 116.855 29.06V40.832C116.855 41.576 117.215 41.948 117.935 41.948C118.535 41.948 119.135 41.732 119.735 41.3L120.419 42.236C119.795 42.932 119.123 43.484 118.403 43.892C117.683 44.3 117.023 44.504 116.423 44.504C115.439 44.504 114.731 44.204 114.299 43.604C113.867 43.004 113.651 42.032 113.651 40.688ZM104.615 35.072C104.615 37.352 104.999 39.032 105.767 40.112C106.559 41.192 107.543 41.732 108.719 41.732C109.679 41.732 110.579 41.468 111.419 40.94C112.259 40.388 113.003 39.56 113.651 38.456V28.736C112.547 27.992 111.371 27.62 110.123 27.62C108.371 27.62 107.015 28.28 106.055 29.6C105.095 30.896 104.615 32.72 104.615 35.072ZM128.501 31.004C128.909 29.396 129.533 28.1 130.373 27.116C131.237 26.132 132.173 25.64 133.181 25.64C134.189 25.64 135.017 25.976 135.665 26.648C136.337 27.296 136.673 28.184 136.673 29.312C136.673 30.224 136.337 30.992 135.665 31.616C134.993 32.24 134.153 32.552 133.145 32.552C132.689 32.552 132.461 32.42 132.461 32.156C132.461 32.084 132.557 31.904 132.749 31.616C132.965 31.328 133.133 31.028 133.253 30.716C133.397 30.404 133.469 30.056 133.469 29.672C133.469 29.24 133.349 28.904 133.109 28.664C132.893 28.4 132.617 28.268 132.281 28.268C131.705 28.268 131.105 28.616 130.481 29.312C129.881 29.984 129.365 31.088 128.933 32.624C128.501 34.136 128.285 36.056 128.285 38.384C128.285 39.464 128.369 40.34 128.537 41.012C128.705 41.66 129.005 42.284 129.437 42.884L129.869 43.46L129.437 44H123.137L122.741 42.884L123.497 42.704C124.097 42.56 124.493 42.308 124.685 41.948C124.901 41.564 125.009 40.916 125.009 40.004V29.888C125.009 29.6 124.949 29.396 124.829 29.276C124.733 29.156 124.553 29.096 124.289 29.096H122.705L122.381 28.16C123.077 27.536 123.869 27.02 124.757 26.612C125.669 26.204 126.461 26 127.133 26C127.469 26 127.745 26.108 127.961 26.324C128.177 26.54 128.285 26.816 128.285 27.152V31.004H128.501ZM153.684 41.3C152.796 42.332 151.74 43.124 150.516 43.676C149.292 44.228 147.972 44.504 146.556 44.504C144.9 44.504 143.448 44.12 142.2 43.352C140.952 42.584 139.98 41.504 139.284 40.112C138.612 38.72 138.276 37.112 138.276 35.288C138.276 33.368 138.66 31.688 139.428 30.248C140.196 28.784 141.276 27.656 142.668 26.864C144.084 26.048 145.728 25.64 147.6 25.64C148.92 25.64 150.036 25.892 150.948 26.396C151.884 26.876 152.58 27.524 153.036 28.34C153.492 29.132 153.72 29.996 153.72 30.932C153.72 31.94 153.444 32.912 152.892 33.848C152.364 34.784 151.584 35.552 150.552 36.152C149.52 36.728 148.284 37.016 146.844 37.016C146.076 37.016 145.224 36.872 144.288 36.584C143.352 36.296 142.884 35.876 142.884 35.324C142.884 35.132 142.932 34.952 143.028 34.784C143.148 34.616 143.28 34.532 143.424 34.532C143.496 34.532 143.736 34.616 144.144 34.784C144.552 34.928 145.08 35 145.728 35C147.168 35 148.284 34.592 149.076 33.776C149.892 32.96 150.3 32 150.3 30.896C150.3 29.96 150 29.156 149.4 28.484C148.8 27.788 147.96 27.44 146.88 27.44C145.344 27.44 144.144 28.124 143.28 29.492C142.416 30.836 141.984 32.768 141.984 35.288C141.984 37.424 142.44 39.104 143.352 40.328C144.264 41.528 145.584 42.128 147.312 42.128C149.424 42.128 151.176 41.444 152.568 40.076C152.664 39.98 152.772 39.932 152.892 39.932C153.084 39.932 153.288 40.052 153.504 40.292C153.72 40.508 153.828 40.736 153.828 40.976C153.828 41.096 153.78 41.204 153.684 41.3Z" fill="#393478"/>
<defs>
<clipPath id="clip0_102_3047">
<rect width="33.7" height="44.2" fill="white"/>
</clipPath>
</defs>
</svg>
